<?xml version="1.0" encoding="UTF-8"?>
<svg id="Layer_4" data-name="Layer 4" xmlns="http://www.w3.org/2000/svg" viewBox="0 0 180 60">
  <defs>
    <style>
      .cls-1 {
        fill: #cba53a;
      }

      .cls-2 {
        fill: #082a67;
      }

      .cls-3 {
        fill: #c9a336;
      }
    </style>
  </defs>
  <g>
    <path class="cls-3" d="M23.58,28.97c1.04-.24,2.39-.46,3.98-.46,1.62,0,3,.22,4.06.46v-15.39c-.59-.21-2.03-.68-4.02-.68-1.99,0-3.43.46-4.02.68v15.39Z"/>
    <path class="cls-3" d="M23.58,54l4.02-3.76,4.02,3.76v-22.56c-.59-.31-2.03-.99-4.02-.99-1.99,0-3.43.68-4.02.99v22.56Z"/>
    <path class="cls-2" d="M43.09,20.37c-.28-3.78-1.93-7.3-4.69-9.98-2.92-2.84-6.76-4.4-10.8-4.4s-7.87,1.56-10.8,4.4c-2.76,2.68-4.41,6.2-4.69,9.98h-1.27v1.58h9.37v-1.58h-1.16c.58-4.2,4.24-7.47,8.55-7.47s7.98,3.28,8.55,7.47h-1.16v1.58h9.37v-1.58h-1.27ZM37.84,20.4c-.39-5.32-4.87-9.48-10.2-9.48s-9.8,4.15-10.2,9.46h-.35l-.34-.03c.42-5.68,5.2-10.12,10.89-10.12s10.48,4.45,10.89,10.12l-.69.05ZM40.28,20.39c-.37-6.75-5.96-12.03-12.72-12.03s-12.34,5.28-12.72,12.02h-.35l-.34-.02c.19-3.42,1.68-6.62,4.19-9,2.51-2.38,5.79-3.69,9.22-3.69s6.7,1.31,9.22,3.69c2.51,2.38,4,5.57,4.19,9l-.69.04Z"/>
    <path class="cls-2" d="M44.36,23.78v-1h0s-9.37,0-9.37,0h0v1h0c.68,0,1.23.55,1.23,1.23v6.83h0c-2.72-1.32-8.42-3.4-13.94-1.16-1.18.48-2.28,1.1-3.29,1.84,0,0-1.87,1.27-2.81,2.27-3.38,3.59-3.97,7.94-4.11,9.72h0v.88c0,.68-.55,1.23-1.23,1.23h0v1h0s9.37,0,9.37,0h0v-1h0c-.68,0-1.23-.55-1.23-1.23v-10.32h0c1.17-1.08,2.53-1.96,4.03-2.57,2.65-1.07,5.68-1.13,9.02-.17,1.91.55,3.4,1.3,4.18,1.72h0v11.34c0,.68-.55,1.23-1.23,1.23h0v1h0s9.37,0,9.37,0h0v-1h0c-.68,0-1.23-.55-1.23-1.23v-20.38c0-.68.55-1.23,1.23-1.23h0ZM17.01,44.42c0,.15-.11.27-.25.27s-.25-.12-.25-.27v-6.96h0c.16-.29.32-.57.49-.84,0,0,0,0,0,0v7.8ZM38.69,44.45c0,.14-.11.25-.25.25h0c-.14,0-.25-.11-.25-.25v-17.97c0-.14.11-.25.25-.25h0c.14,0,.25.11.25.25v17.97ZM41.16,44.45c0,.16-.14.28-.31.24-.11-.03-.19-.14-.19-.25v-17.95c0-.12.07-.22.19-.25.16-.04.31.08.31.24v17.97Z"/>
    <path class="cls-2" d="M10.84,22.78h0v1h0c.68,0,1.23.55,1.23,1.23v13.68h0c.42-.88,1.05-2.01,1.98-3.2v-9.06c0-.11.11-.2.25-.2h0c.14,0,.25.09.25.2v8.46c.27-.32.56-.64.88-.96.37-.37.74-.71,1.1-1.02v-6.47c0-.11.11-.2.25-.2s.25.09.25.2v6.07h0c.71-.56,1.38-1.01,1.98-1.37v-6.12c0-.68.55-1.23,1.23-1.23v-1h-9.37Z"/>
  </g>
  <path class="cls-2" d="M169.09,45.95l-6.01-.04c-.19-.84.64-.61.93-1.3.44-1.08.24-4.58.23-5.93-.02-1.61.11-6.09-.77-7.25-1.49-1.96-4.43-.9-5.39,1.03l.19,11.2c.08.73.15,1.05.74,1.52.13.11.48.21.53.27.03.04.04.35,0,.39-.25.24-5.49.11-6.2.11-.02-.58.36-.51.7-.77.44-.34.52-.82.6-1.34-.13-3.33.15-6.91-.11-10.2-.04-.46-.11-.98-.26-1.42-.96-2.84-4.7-1.93-5.79.3l.15,11.11c.04.68.27,1.3.85,1.7.4.27.55,0,.53.7l-6.07.04c-.44-.65.42-.66.72-1.02.18-.22.35-.63.39-.91-.08-3.67,0-7.37-.13-11.04-.03-.81.05-2.14-.77-2.59-.23-.13-.79-.1-.6-.5.11-.23,4.24-1.34,4.8-1.56l.2,2.65c2.19-3.2,7.73-3.73,9.2.45.37-.31.59-.77.92-1.12,2.44-2.59,6.95-2.76,8.48.88,1.23,2.92.23,8.93.63,12.29.08.63.2,1.13.74,1.52.39.28.82.14.57.84Z"/>
  <path class="cls-2" d="M108.61,45.74c.01.18-.03.41-.24.42l-5.97.08v-.54c.5-.19.91-.48,1.09-1.02.38-1.13.16-5.13.13-6.56-.03-1.52.08-4.48-.41-5.79-1.05-2.79-5.61-1.64-5.94.83l.16,10.84c.15.91.48,1.41,1.31,1.85l-.06.32-6.03.11c-.08-.92.79-.63,1.09-1.56.11-3.8.14-7.69-.03-11.5-.05-1.17.11-2.54-1.45-2.68v-.39s4.73-1.49,4.73-1.49c.2.01.17.21.2.35.13.7-.05,1.48,0,2.19,1.48-1.48,3.41-2.66,5.59-2.43,2.65.28,4,2.16,4.26,4.66.3,2.86.01,6.03.13,8.93.06,1.41-.14,2.75,1.42,3.37Z"/>
  <path class="cls-2" d="M137.39,46.41l-.34-2.67c-1.46,2.57-5.07,3.66-7.64,2.07-3.64-2.25-1.6-10.32-2.29-14.03-.07-.37-.29-.88-.57-1.13-.33-.3-1.01-.21-.72-.7l4.83-1.38.14,11.57c.05,1.31.11,2.93,1.23,3.8,1.73,1.34,4.43.32,4.96-1.76l-.13-10.37c-.03-.4-.41-1.16-.74-1.35-.29-.16-1.13-.26-.47-.68.66-.01,4.45-1.51,4.74-1.22l.22,14.17c.13.91.49,1.54,1.46,1.71.06.08.11.35.09.44-.06.32-1.72.59-2.09.71s-2.43,1.09-2.69.81Z"/>
  <path class="cls-2" d="M124.26,36.88l-10.57.15c-.06,3.62,1.59,7.35,5.74,7.31,1.47-.01,2.73-.67,3.72-1.72.4-.43.53-1.16,1.2-.61-1.68,5.26-8.48,6.03-12.03,2.1-3.92-4.34-2.68-13.7,3.51-15.25,5.14-1.29,8.85,3.18,8.44,8.02ZM120.75,35.81c.03-2.1-.54-6.2-3.35-6.11s-3.6,3.96-3.68,6.17l7.03-.06Z"/>
  <path class="cls-2" d="M90.62,36.97l-10.53.15c-.01,2.35.74,5.45,2.98,6.64,1.99,1.06,4.32,1,6.06-.49.28-.24,1.08-1.35,1.17-1.39.16-.06.52.21.54.28.04.13-.71,1.4-.85,1.62-2.26,3.39-6.71,3.71-9.98,1.56-5.59-3.68-4.43-14.94,2.5-16.41,5.27-1.12,8.6,3.13,8.12,8.05ZM87.22,35.92c-.2-2.3-.47-6.56-3.77-6.11-2.14.29-2.73,2.54-3.2,4.32l-.15,1.83,7.12-.03Z"/>
  <path class="cls-2" d="M53.22,29.11l4.07.1-.08,1.03-4.04.14.15,12.27c.08,1.78,1.87,2.79,3.39,1.8.43-.28.72-1.1,1.19-.51-1.19,3.74-7.38,3.82-8.06-.28-.31-4.33-.09-8.7-.24-13.04-.18-.58-1.43-.13-1.87-.33-.44-.78.98-.98,1.54-1.31,1.01-.6,2.01-1.75,2.59-2.77.15-.27.69-1.58.78-1.61.2-.08.52-.04.49.24l.09,4.28Z"/>
  <path class="cls-2" d="M90.26,27.58h-10.57c-1.43-.15-2.5-1.37-2.43-2.78.06-1.31,1.11-2.4,2.43-2.53h.04s10.53,0,10.53,0c.21.03.37.2.39.41.02.23-.15.44-.39.48h-10.51c-.88.1-1.58.82-1.62,1.69-.04.92.68,1.74,1.62,1.85h10.51c.23.03.4.24.39.46,0,.21-.17.4-.39.43Z"/>
  <rect class="cls-2" x="79.6" y="23.82" width="10.17" height=".3" rx=".15" ry=".15"/>
  <rect class="cls-2" x="79.6" y="24.78" width="10.17" height=".3" rx=".15" ry=".15"/>
  <rect class="cls-2" x="79.6" y="25.74" width="10.17" height=".3" rx=".15" ry=".15"/>
  <g>
    <path class="cls-2" d="M68.52,17.75c.16-.43,1.28-1.66,1.65-2.03,2.61-2.64,6.72-4.47,10.4-4.84-1.91,1.53-3.11,3.58-4.12,5.77l-2.18.95c-.05.19.28.14.38.12.48-.07,1.06-.38,1.51-.57-.66,1.85-1.62,4.09-3.47,5-.75.37-1.65.55-2.45.8-.04.2.37.15.48.14.6-.03,1.18-.2,1.73-.43.11.08-.04.27-.1.35-.52.79-2.18,1.82-3.06,2.2-.55.24-1.81.47-2.15.8-.83.8-2.13,3.56-2.13,3.56,3.85-2.06,8.08-.31,8.45,3.78.26,2.93.03,6.05.14,9,.03.85-.03,2.25.55,2.91.35.39.96.37.79.91l-6.16.18.04-.5c.8-.09,1.19-.76,1.25-1.51-.21-3.53.24-7.39-.1-10.88-.36-3.76-5.34-3.46-6.26-.28.02,2.43-.04,4.88,0,7.31.02,1.14-.05,2.71.12,3.79.12.8.48,1.41,1.33,1.58l-.07.42-6.14.1c-.13-.69.33-.52.69-.9.25-.26.44-.67.48-1.03-.16-6.68.27-13.59-.07-20.25-.06-1.13-.19-2.35-1.52-2.58v-.26s4.99-1.5,4.99-1.5l-.13,11.15c2.21-5.5,5.65-10.79,9.89-14.96l-.02-.15c-2.88,2.4-5.25,5.5-7.05,8.79-.16.11-.18-.04-.17-.18.16-2.15.69-4.3,1.87-6.12.21.2.09.7.11.98,0,.17-.15.26.15.27.18-.56.16-1.36.36-1.89Z"/>
    <path class="cls-1" d="M68.52,17.75c.16-.43,1.28-1.66,1.65-2.03,2.61-2.64,6.72-4.47,10.4-4.84-1.91,1.53-3.11,3.58-4.12,5.77l-2.18.95c-.05.19.28.14.38.12.48-.07,1.06-.38,1.51-.57-.66,1.85-1.62,4.09-3.47,5-.75.37-1.65.55-2.45.8-.04.2.37.15.48.14.6-.03,1.18-.2,1.73-.43.11.08-.04.27-.1.35-.52.79-2.18,1.82-3.06,2.2-.55.24-1.81.47-2.15.8-.45.44-1.24,2.34-2.13,3.56-.24.16-.49.35-.75.57-.35.29-.64.59-.89.86.92-2.28,2.25-5.04,4.18-7.98,1.67-2.53,3.59-4.9,5.71-6.98l-.02-.15c-2.88,2.4-5.25,5.5-7.05,8.79-.16.11-.18-.04-.17-.18.16-2.15.69-4.3,1.87-6.12.21.2.09.7.11.98,0,.17-.15.26.15.27.18-.56.16-1.36.36-1.89Z"/>
  </g>
</svg>